<svg width="459" height="64" viewBox="0 0 459 64" fill="none" xmlns="http://www.w3.org/2000/svg">
<path d="M63.9826 31.9913C63.9826 49.6596 49.6596 63.9826 31.9913 63.9826C14.323 63.9826 2.59511e-09 49.6596 2.59511e-09 31.9913C2.59511e-09 14.323 14.323 8.78944e-09 31.9913 8.78944e-09C49.6596 8.78944e-09 63.9826 14.323 63.9826 31.9913Z" fill="#6C8673"/>
<path fill-rule="evenodd" clip-rule="evenodd" d="M26.9167 3.17124C25.2664 3.46423 23.6187 3.90351 21.9895 4.49648C20.3602 5.08952 18.8155 5.81219 17.3629 6.64861C13.66 8.79115 10.4701 11.7217 8.02246 15.2108C5.58091 18.7042 3.91818 22.704 3.17131 26.9162C2.88215 28.5673 2.73137 30.2661 2.73137 32C2.73137 33.7338 2.88212 35.4324 3.17123 37.0833C3.46422 38.7336 3.9035 40.3813 4.49648 42.0105C5.0895 43.6398 5.81215 45.1844 6.64854 46.637C8.79122 50.3401 11.722 53.5303 15.2115 55.978C18.7044 58.4191 22.7035 60.0816 26.9151 60.8285C28.5666 61.1178 30.2657 61.2686 32 61.2686C33.734 61.2686 35.4329 61.1178 37.0841 60.8286C38.7341 60.5356 40.3815 60.0964 42.0105 59.5035C43.6396 58.9106 45.1841 58.188 46.6365 57.3517C50.34 55.209 53.5304 52.278 55.9783 48.7881C58.4192 45.2953 60.0816 41.2964 60.8285 37.085C61.1178 35.4335 61.2686 33.7344 61.2686 32C61.2686 30.266 61.1178 28.5672 60.8286 26.916C60.5357 25.2659 60.0964 23.6185 59.5035 21.9895C57.7747 17.2397 54.2299 13.3712 49.6488 11.235C45.0677 9.09879 39.8256 8.86992 35.0758 10.5987C30.326 12.3275 26.4574 15.8724 24.3213 20.4534C22.1851 25.0345 21.9562 30.2766 23.685 35.0264C24.2353 36.5383 25.078 37.9271 26.165 39.1133C27.252 40.2996 28.562 41.2601 30.0202 41.9401C31.4784 42.62 33.0562 43.0061 34.6637 43.0763C36.2711 43.1465 37.8766 42.8994 39.3885 42.3491C40.9004 41.7988 42.2892 40.9561 43.4754 39.8691C44.6617 38.7821 45.6222 37.4721 46.3022 36.0139C46.9821 34.5557 47.3682 32.9778 47.4384 31.3704C47.5071 29.796 47.2715 28.2235 46.7447 26.7389C46.165 25.2002 45.0057 23.9483 43.5138 23.2526C42.0004 22.5469 40.2687 22.4713 38.6995 23.0424C37.1304 23.6136 35.8524 24.7846 35.1467 26.298C34.4563 27.7786 34.3689 29.4682 34.9003 31.0101C35.0926 31.4926 35.462 31.8845 35.9341 32.1047C36.425 32.3335 36.9866 32.3581 37.4955 32.1728C38.0044 31.9876 38.4189 31.6078 38.6478 31.117C38.8767 30.6261 38.9012 30.0645 38.716 29.5556C38.4588 28.8491 38.8231 28.0679 39.5296 27.8108C40.2361 27.5536 41.0173 27.9179 41.2744 28.6244C41.7066 29.8118 41.6494 31.1224 41.1154 32.2676C40.5813 33.4129 39.6142 34.2991 38.4267 34.7313C37.2393 35.1635 35.9288 35.1063 34.7835 34.5722C33.7497 34.0902 32.927 33.2552 32.4587 32.2239C32.428 32.1666 32.4009 32.1064 32.378 32.0435C32.3668 32.0126 32.3557 31.9817 32.3448 31.9508C32.3363 31.9284 32.328 31.9061 32.3198 31.8836C32.3072 31.849 32.2961 31.8142 32.2865 31.7794C31.5697 29.6027 31.7077 27.2306 32.6791 25.1474C33.69 22.9795 35.5206 21.3021 37.7683 20.484C40.016 19.6659 42.4966 19.7742 44.6644 20.7851C46.7477 21.7565 48.3781 23.485 49.2282 25.6131C49.2432 25.646 49.2571 25.6798 49.2697 25.7144C49.2806 25.7444 49.2914 25.7745 49.3022 25.8046C49.3108 25.8278 49.3194 25.851 49.3278 25.8743C49.3364 25.8977 49.3442 25.9212 49.3514 25.9448C49.9666 27.725 50.2407 29.606 50.1585 31.4892C50.0727 33.4538 49.6008 35.3823 48.7697 37.1646C47.9386 38.9468 46.7647 40.5479 45.3148 41.8765C43.865 43.205 42.1676 44.235 40.3197 44.9076C38.4718 45.5801 36.5095 45.8822 34.5449 45.7964C32.5803 45.7106 30.6518 45.2387 28.8695 44.4076C27.0873 43.5766 25.4862 42.4026 24.1576 40.9527C22.8291 39.5029 21.7991 37.8055 21.1265 35.9576C19.1507 30.5292 19.4123 24.5383 21.8537 19.3028C24.295 14.0673 28.7162 10.016 34.1446 8.04025C38.8194 6.33875 43.9114 6.29654 48.5789 7.87686C45.1357 5.51478 41.2119 3.90327 37.0839 3.17134C35.4328 2.88216 33.734 2.73137 32 2.73137C30.2662 2.73137 28.5676 2.88212 26.9167 3.17124ZM59.7101 16.0021C61.5474 19.1776 62.8545 22.6982 63.5103 26.4428C64.1753 30.1873 64.1511 33.944 63.5103 37.5576C62.6877 42.2537 60.8409 46.5974 58.2087 50.35C55.5821 54.1084 52.1308 57.3306 47.9976 59.7103C44.8222 61.5475 41.3018 62.8545 37.5573 63.5103C33.8129 64.1752 30.0562 64.1511 26.4426 63.5103C21.7461 62.6877 17.4021 60.8407 13.6494 58.2082C9.89152 55.5819 6.66976 52.1311 4.29026 47.9986C2.45265 44.8227 1.14537 41.3015 0.489504 37.5563C-0.175198 33.8124 -0.151047 30.0564 0.489568 26.4433C1.31216 21.7463 3.15934 17.4018 5.79222 13.6487C8.41841 9.89126 11.8689 6.66981 16.0011 4.29047C19.1771 2.45274 22.6984 1.14537 26.4438 0.489485C30.1877 -0.175211 33.9438 -0.15104 37.5569 0.489607C42.2535 1.31217 46.5977 3.15915 50.3506 5.79174C54.1087 8.4182 57.3306 11.8692 59.7101 16.0021Z" fill="#CCD6CF"/>
<path d="M79.6172 18.3906C79.8672 18.3594 80.0234 18.3438 80.0859 18.3438C80.7266 18.3438 81.0469 18.6484 81.0469 19.2578V29.4297C81.9844 28.6172 82.9688 28 84 27.5781C85.0469 27.1562 86.2812 26.9453 87.7031 26.9453C89.5 26.9453 91.0625 27.3672 92.3906 28.2109C93.7344 29.0391 94.7656 30.1953 95.4844 31.6797C96.2031 33.1484 96.5625 34.8125 96.5625 36.6719C96.5625 38.5625 96.2109 40.2422 95.5078 41.7109C94.8047 43.1797 93.7891 44.3281 92.4609 45.1562C91.1484 45.9844 89.5938 46.3984 87.7969 46.3984C86.3906 46.3984 85.1016 46.1406 83.9297 45.625C82.7578 45.1094 81.7656 44.4375 80.9531 43.6094C80.9531 44.3594 80.8984 44.9141 80.7891 45.2734C80.6797 45.6328 80.5391 45.8594 80.3672 45.9531C80.2109 46.0469 80.0078 46.0938 79.7578 46.0938C79.4609 46.0938 79.2266 45.9688 79.0547 45.7188C78.8828 45.4688 78.7969 44.9844 78.7969 44.2656V20.4297L75.7969 20.6172C75.7344 20.6328 75.6641 20.6484 75.5859 20.6641C75.5078 20.6797 75.4219 20.6875 75.3281 20.6875C75.0625 20.6875 74.8438 20.6016 74.6719 20.4297C74.5 20.2578 74.4141 20.0469 74.4141 19.7969C74.4141 19.5781 74.4766 19.375 74.6016 19.1875C74.7266 19 74.9219 18.8828 75.1875 18.8359L79.6172 18.3906ZM83.8125 43.5625C84.9375 44.1719 86.25 44.4766 87.75 44.4766C89.1562 44.4766 90.3516 44.125 91.3359 43.4219C92.3203 42.7188 93.0625 41.7812 93.5625 40.6094C94.0625 39.4219 94.3125 38.1094 94.3125 36.6719C94.3125 35.25 94.0547 33.9453 93.5391 32.7578C93.0234 31.5703 92.2578 30.625 91.2422 29.9219C90.2266 29.2188 89 28.8672 87.5625 28.8672C84.8281 28.8672 82.6562 29.875 81.0469 31.8906V41.0781C81.7812 42.125 82.7031 42.9531 83.8125 43.5625ZM120.141 34.9844V34.5156C120.141 32.6875 119.781 31.2891 119.062 30.3203C118.359 29.3516 117.133 28.8672 115.383 28.8672C114.398 28.8672 113.492 28.9531 112.664 29.125C111.852 29.2812 111.031 29.5469 110.203 29.9219C110.141 31.125 110 32.0312 109.781 32.6406C109.562 33.25 109.188 33.5547 108.656 33.5547C108.203 33.5547 107.852 33.3984 107.602 33.0859C107.367 32.7734 107.25 32.3672 107.25 31.8672C107.25 30.9297 107.594 30.0859 108.281 29.3359C108.969 28.5859 109.93 28 111.164 27.5781C112.398 27.1562 113.812 26.9453 115.406 26.9453C117.203 26.9453 118.609 27.2812 119.625 27.9531C120.656 28.625 121.375 29.5938 121.781 30.8594C122.188 32.1094 122.391 33.6875 122.391 35.5938V42.9062C122.391 43.4531 122.5 43.8281 122.719 44.0312C122.938 44.2188 123.234 44.3125 123.609 44.3125C124.016 44.3125 124.445 44.1953 124.898 43.9609C125.352 43.7109 125.711 43.4453 125.977 43.1641C126.148 42.9766 126.336 42.8828 126.539 42.8828C126.773 42.8828 126.977 42.9844 127.148 43.1875C127.32 43.3906 127.406 43.6172 127.406 43.8672C127.406 44.1016 127.328 44.2969 127.172 44.4531C126.672 44.9844 126.094 45.4062 125.438 45.7188C124.797 46.0156 124.125 46.1641 123.422 46.1641C122.625 46.1641 121.953 45.9766 121.406 45.6016C120.859 45.2109 120.492 44.4609 120.305 43.3516C119.539 44.2109 118.461 44.9297 117.07 45.5078C115.695 46.0859 114.195 46.375 112.57 46.375C110.82 46.375 109.453 45.8984 108.469 44.9453C107.484 43.9766 106.992 42.6875 106.992 41.0781C106.992 39.4531 107.508 38.2266 108.539 37.3984C109.57 36.5703 110.836 36.0234 112.336 35.7578C113.852 35.4922 115.883 35.2734 118.43 35.1016L120.141 34.9844ZM116.883 43.7031C118.211 43.1719 119.297 42.4609 120.141 41.5703V36.6016L119.18 36.6953C116.617 36.9453 114.695 37.1875 113.414 37.4219C112.148 37.6406 111.141 38.0312 110.391 38.5938C109.641 39.1562 109.266 39.9844 109.266 41.0781C109.266 42.2656 109.586 43.1328 110.227 43.6797C110.883 44.2109 111.75 44.4766 112.828 44.4766C114.219 44.4766 115.57 44.2188 116.883 43.7031ZM152.016 32.5938C151.797 32.375 151.688 32.0703 151.688 31.6797V28.8672C149.594 28.8672 147.742 29.2812 146.133 30.1094C144.523 30.9219 143.406 32.1094 142.781 33.6719V44.0781H150.656C150.953 44.0781 151.18 44.1719 151.336 44.3594C151.508 44.5469 151.594 44.7734 151.594 45.0391C151.594 45.2891 151.508 45.5156 151.336 45.7188C151.164 45.9062 150.93 46 150.633 46H136.336C135.992 46 135.727 45.9062 135.539 45.7188C135.352 45.5156 135.258 45.2812 135.258 45.0156C135.258 44.7656 135.344 44.5469 135.516 44.3594C135.688 44.1719 135.93 44.0781 136.242 44.0781H140.531V29.3828L137.672 29.9688C137.609 29.9844 137.516 29.9922 137.391 29.9922C137.094 29.9922 136.859 29.8984 136.688 29.7109C136.531 29.5234 136.453 29.3047 136.453 29.0547C136.453 28.8359 136.516 28.6484 136.641 28.4922C136.766 28.3203 136.938 28.2109 137.156 28.1641L141.164 27.3672C141.367 27.3203 141.547 27.2969 141.703 27.2969C142.047 27.2969 142.273 27.4062 142.383 27.625C142.508 27.8438 142.578 28.1719 142.594 28.6094L142.688 31.0469C144.469 28.3125 147.531 26.9453 151.875 26.9453C152.625 26.9453 153.156 27.0625 153.469 27.2969C153.781 27.5312 153.938 27.8828 153.938 28.3516V31.5859C153.938 32.0078 153.82 32.3359 153.586 32.5703C153.367 32.7891 153.102 32.8984 152.789 32.8984C152.492 32.8984 152.234 32.7969 152.016 32.5938ZM165.492 41.7812C164.602 40.2812 164.156 38.5078 164.156 36.4609C164.156 34.5234 164.617 32.8359 165.539 31.3984C166.477 29.9609 167.727 28.8594 169.289 28.0938C170.867 27.3281 172.609 26.9453 174.516 26.9453C176.141 26.9453 177.586 27.25 178.852 27.8594C180.133 28.4531 181.133 29.3359 181.852 30.5078C182.586 31.6797 182.953 33.1016 182.953 34.7734C182.953 35.3672 182.789 35.8594 182.461 36.25C182.133 36.625 181.695 36.8125 181.148 36.8125L166.406 36.9297C166.484 39.3984 167.266 41.2734 168.75 42.5547C170.234 43.8359 172.18 44.4766 174.586 44.4766C175.758 44.4766 176.906 44.2656 178.031 43.8438C179.172 43.4062 180.188 42.7656 181.078 41.9219C181.406 41.6562 181.727 41.5234 182.039 41.5234C182.32 41.5234 182.547 41.625 182.719 41.8281C182.891 42.0312 182.977 42.2734 182.977 42.5547C182.977 42.8984 182.836 43.2266 182.555 43.5391C181.742 44.4141 180.57 45.1094 179.039 45.625C177.523 46.1406 176.102 46.3984 174.773 46.3984C172.68 46.3984 170.828 46 169.219 45.2031C167.625 44.4062 166.383 43.2656 165.492 41.7812ZM179.508 30.7188C178.648 29.4844 177 28.8672 174.562 28.8672C172.281 28.8672 170.43 29.4219 169.008 30.5312C167.602 31.6406 166.758 33.1953 166.477 35.1953L180.961 35.1016C180.852 33.4141 180.367 31.9531 179.508 30.7188ZM212.133 18.4844C212.398 18.7031 212.531 18.9922 212.531 19.3516V22.0938C212.531 22.5156 212.414 22.8438 212.18 23.0781C211.961 23.2969 211.695 23.4062 211.383 23.4062C211.086 23.4062 210.828 23.3047 210.609 23.1016C210.391 22.8828 210.281 22.5781 210.281 22.1875V20.0078C208.453 20.1328 207.031 20.4297 206.016 20.8984C205.016 21.3516 204.305 22.0234 203.883 22.9141C203.477 23.8047 203.273 25 203.273 26.5V28.0469H210.516C210.812 28.0469 211.039 28.1484 211.195 28.3516C211.367 28.5391 211.453 28.7578 211.453 29.0078C211.453 29.2734 211.367 29.5 211.195 29.6875C211.023 29.875 210.789 29.9688 210.492 29.9688H203.25L203.273 44.0781H211.758C212.039 44.0781 212.258 44.1797 212.414 44.3828C212.586 44.5703 212.672 44.7891 212.672 45.0391C212.672 45.3047 212.586 45.5312 212.414 45.7188C212.258 45.9062 212.031 46 211.734 46H195.914C195.57 46 195.305 45.9062 195.117 45.7188C194.93 45.5156 194.836 45.2812 194.836 45.0156C194.836 44.7656 194.922 44.5469 195.094 44.3594C195.266 44.1719 195.508 44.0781 195.82 44.0781H201V29.9688H196.5C196.156 29.9688 195.891 29.875 195.703 29.6875C195.516 29.4844 195.422 29.25 195.422 28.9844C195.422 28.7344 195.508 28.5156 195.68 28.3281C195.852 28.1406 196.094 28.0469 196.406 28.0469H201V26.3594C201 23.5938 201.875 21.5391 203.625 20.1953C205.391 18.8359 207.914 18.1562 211.195 18.1562C211.57 18.1562 211.883 18.2656 212.133 18.4844ZM223.148 41.8047C222.32 40.3359 221.906 38.625 221.906 36.6719C221.906 34.7031 222.32 32.9844 223.148 31.5156C223.977 30.0469 225.141 28.9219 226.641 28.1406C228.141 27.3438 229.875 26.9453 231.844 26.9453C233.812 26.9453 235.547 27.3438 237.047 28.1406C238.547 28.9219 239.711 30.0469 240.539 31.5156C241.367 32.9844 241.781 34.7031 241.781 36.6719C241.781 38.625 241.367 40.3359 240.539 41.8047C239.711 43.2734 238.547 44.4062 237.047 45.2031C235.547 46 233.812 46.3984 231.844 46.3984C229.875 46.3984 228.141 46 226.641 45.2031C225.141 44.4062 223.977 43.2734 223.148 41.8047ZM225.305 32.6406C224.727 33.8125 224.438 35.1562 224.438 36.6719C224.438 38.2031 224.727 39.5625 225.305 40.75C225.898 41.9219 226.75 42.8359 227.859 43.4922C228.984 44.1484 230.312 44.4766 231.844 44.4766C233.375 44.4766 234.695 44.1484 235.805 43.4922C236.93 42.8359 237.781 41.9219 238.359 40.75C238.953 39.5625 239.25 38.2031 239.25 36.6719C239.25 35.1562 238.953 33.8125 238.359 32.6406C237.781 31.4531 236.93 30.5312 235.805 29.875C234.695 29.2031 233.375 28.8672 231.844 28.8672C230.312 28.8672 228.984 29.2031 227.859 29.875C226.75 30.5312 225.898 31.4531 225.305 32.6406ZM252.211 41.8047C251.383 40.3359 250.969 38.625 250.969 36.6719C250.969 34.7031 251.383 32.9844 252.211 31.5156C253.039 30.0469 254.203 28.9219 255.703 28.1406C257.203 27.3438 258.938 26.9453 260.906 26.9453C262.875 26.9453 264.609 27.3438 266.109 28.1406C267.609 28.9219 268.773 30.0469 269.602 31.5156C270.43 32.9844 270.844 34.7031 270.844 36.6719C270.844 38.625 270.43 40.3359 269.602 41.8047C268.773 43.2734 267.609 44.4062 266.109 45.2031C264.609 46 262.875 46.3984 260.906 46.3984C258.938 46.3984 257.203 46 255.703 45.2031C254.203 44.4062 253.039 43.2734 252.211 41.8047ZM254.367 32.6406C253.789 33.8125 253.5 35.1562 253.5 36.6719C253.5 38.2031 253.789 39.5625 254.367 40.75C254.961 41.9219 255.812 42.8359 256.922 43.4922C258.047 44.1484 259.375 44.4766 260.906 44.4766C262.438 44.4766 263.758 44.1484 264.867 43.4922C265.992 42.8359 266.844 41.9219 267.422 40.75C268.016 39.5625 268.312 38.2031 268.312 36.6719C268.312 35.1562 268.016 33.8125 267.422 32.6406C266.844 31.4531 265.992 30.5312 264.867 29.875C263.758 29.2031 262.438 28.8672 260.906 28.8672C259.375 28.8672 258.047 29.2031 256.922 29.875C255.812 30.5312 254.961 31.4531 254.367 32.6406ZM295.969 29.7812H287.273V41.2188C287.273 42.3438 287.641 43.1719 288.375 43.7031C289.125 44.2188 290.102 44.4766 291.305 44.4766C292.398 44.4766 293.531 44.2891 294.703 43.9141C295.891 43.5234 296.859 43.0469 297.609 42.4844C297.672 42.4219 297.758 42.3906 297.867 42.3906C298.086 42.3906 298.305 42.5234 298.523 42.7891C298.742 43.0547 298.852 43.3203 298.852 43.5859C298.852 43.7109 298.812 43.8281 298.734 43.9375C298.406 44.3281 297.836 44.7188 297.023 45.1094C296.227 45.4844 295.297 45.7891 294.234 46.0234C293.172 46.2734 292.117 46.3984 291.07 46.3984C290.008 46.3984 289.008 46.2031 288.07 45.8125C287.148 45.4062 286.406 44.8672 285.844 44.1953C285.297 43.5234 285.023 42.8047 285.023 42.0391V29.7812H281.672C281.328 29.7812 281.062 29.6797 280.875 29.4766C280.688 29.2734 280.594 29.0391 280.594 28.7734C280.594 28.5234 280.68 28.3125 280.852 28.1406C281.023 27.9531 281.266 27.8594 281.578 27.8594H285.023C285.023 25.9062 285.047 24.5078 285.094 23.6641C285.141 22.8203 285.258 22.2031 285.445 21.8125C285.648 21.4062 285.977 21.2031 286.43 21.2031C286.773 21.2031 287 21.2969 287.109 21.4844C287.219 21.6562 287.273 21.9141 287.273 22.2578V27.8594H295.992C296.273 27.8594 296.492 27.9609 296.648 28.1641C296.82 28.3516 296.906 28.5703 296.906 28.8203C296.906 29.0859 296.82 29.3125 296.648 29.5C296.492 29.6875 296.266 29.7812 295.969 29.7812Z" fill="#100F09"/>
<path d="M334.586 46.0703H334.422C334.109 46.0703 333.852 45.9766 333.648 45.7891C333.445 45.5859 333.336 45.2891 333.32 44.8984L333.25 43.4922C332.531 44.3516 331.562 45.0547 330.344 45.6016C329.141 46.1328 327.82 46.3984 326.383 46.3984C324.586 46.3984 323.016 45.9844 321.672 45.1562C320.344 44.3281 319.32 43.1797 318.602 41.7109C317.883 40.2422 317.523 38.5625 317.523 36.6719C317.523 34.8125 317.883 33.1484 318.602 31.6797C319.32 30.1953 320.344 29.0391 321.672 28.2109C323.016 27.3672 324.586 26.9453 326.383 26.9453C327.805 26.9453 329.031 27.1562 330.062 27.5781C331.109 28 332.102 28.6172 333.039 29.4297V20.4297L330.039 20.6172C329.977 20.6328 329.906 20.6484 329.828 20.6641C329.75 20.6797 329.664 20.6875 329.57 20.6875C329.305 20.6875 329.086 20.6016 328.914 20.4297C328.742 20.2578 328.656 20.0469 328.656 19.7969C328.656 19.5781 328.719 19.375 328.844 19.1875C328.969 19 329.164 18.8828 329.43 18.8359L333.859 18.3906C334.109 18.3594 334.266 18.3438 334.328 18.3438C334.969 18.3438 335.289 18.6484 335.289 19.2578V44.0078L338.758 43.75H338.898C339.211 43.75 339.445 43.8281 339.602 43.9844C339.758 44.1406 339.836 44.3359 339.836 44.5703C339.836 44.8047 339.758 45.0234 339.602 45.2266C339.445 45.4141 339.227 45.5391 338.945 45.6016L334.586 46.0703ZM333.039 31.8906C331.43 29.875 329.258 28.8672 326.523 28.8672C325.086 28.8672 323.859 29.2188 322.844 29.9219C321.828 30.625 321.062 31.5703 320.547 32.7578C320.031 33.9453 319.773 35.25 319.773 36.6719C319.773 38.0938 320.031 39.3984 320.547 40.5859C321.062 41.7734 321.82 42.7188 322.82 43.4219C323.82 44.125 325.023 44.4766 326.43 44.4766C329.258 44.4766 331.461 43.3438 333.039 41.0781V31.8906ZM347.898 41.8047C347.07 40.3359 346.656 38.625 346.656 36.6719C346.656 34.7031 347.07 32.9844 347.898 31.5156C348.727 30.0469 349.891 28.9219 351.391 28.1406C352.891 27.3438 354.625 26.9453 356.594 26.9453C358.562 26.9453 360.297 27.3438 361.797 28.1406C363.297 28.9219 364.461 30.0469 365.289 31.5156C366.117 32.9844 366.531 34.7031 366.531 36.6719C366.531 38.625 366.117 40.3359 365.289 41.8047C364.461 43.2734 363.297 44.4062 361.797 45.2031C360.297 46 358.562 46.3984 356.594 46.3984C354.625 46.3984 352.891 46 351.391 45.2031C349.891 44.4062 348.727 43.2734 347.898 41.8047ZM350.055 32.6406C349.477 33.8125 349.188 35.1562 349.188 36.6719C349.188 38.2031 349.477 39.5625 350.055 40.75C350.648 41.9219 351.5 42.8359 352.609 43.4922C353.734 44.1484 355.062 44.4766 356.594 44.4766C358.125 44.4766 359.445 44.1484 360.555 43.4922C361.68 42.8359 362.531 41.9219 363.109 40.75C363.703 39.5625 364 38.2031 364 36.6719C364 35.1562 363.703 33.8125 363.109 32.6406C362.531 31.4531 361.68 30.5312 360.555 29.875C359.445 29.2031 358.125 28.8672 356.594 28.8672C355.062 28.8672 353.734 29.2031 352.609 29.875C351.5 30.5312 350.648 31.4531 350.055 32.6406ZM379.703 28V39.9297C379.703 41.2891 380.086 42.3906 380.852 43.2344C381.633 44.0625 382.781 44.4766 384.297 44.4766C385.219 44.4766 386.164 44.3047 387.133 43.9609C388.102 43.6172 388.969 43.1484 389.734 42.5547C390.516 41.9609 391.078 41.3047 391.422 40.5859V29.4531L389.148 29.9219C389.008 29.9688 388.867 29.9922 388.727 29.9922C388.398 29.9922 388.133 29.8906 387.93 29.6875C387.727 29.4844 387.625 29.25 387.625 28.9844C387.625 28.7656 387.695 28.5781 387.836 28.4219C387.992 28.25 388.219 28.1328 388.516 28.0703L392.594 27.25C392.719 27.2188 392.812 27.2031 392.875 27.2031C393.109 27.2031 393.297 27.2812 393.438 27.4375C393.594 27.5938 393.672 27.7812 393.672 28V44.0078L397.141 43.75H397.281C397.594 43.75 397.828 43.8281 397.984 43.9844C398.141 44.1406 398.219 44.3359 398.219 44.5703C398.219 44.8047 398.141 45.0234 397.984 45.2266C397.828 45.4141 397.609 45.5391 397.328 45.6016L392.969 46.0703H392.805C392.492 46.0703 392.234 45.9766 392.031 45.7891C391.828 45.5859 391.719 45.2891 391.703 44.8984L391.586 42.8594C390.898 43.875 389.875 44.7188 388.516 45.3906C387.156 46.0625 385.742 46.3984 384.273 46.3984C382.867 46.3984 381.648 46.125 380.617 45.5781C379.586 45.0312 378.797 44.2656 378.25 43.2812C377.719 42.2969 377.453 41.1562 377.453 39.8594V29.4531L375.156 29.9219C375.062 29.9531 374.93 29.9688 374.758 29.9688C374.445 29.9688 374.188 29.8672 373.984 29.6641C373.781 29.4609 373.68 29.2266 373.68 28.9609C373.68 28.7422 373.75 28.5547 373.891 28.3984C374.031 28.2422 374.242 28.1328 374.523 28.0703L378.625 27.25C378.75 27.2188 378.844 27.2031 378.906 27.2031C379.141 27.2031 379.328 27.2812 379.469 27.4375C379.625 27.5938 379.703 27.7812 379.703 28ZM415.938 18.3203L416.195 18.2969C416.445 18.2969 416.648 18.3672 416.805 18.5078C416.961 18.6328 417.039 18.8125 417.039 19.0469V44.0781H425.008C425.289 44.0781 425.508 44.1797 425.664 44.3828C425.836 44.5703 425.922 44.7891 425.922 45.0391C425.922 45.3047 425.836 45.5312 425.664 45.7188C425.508 45.9062 425.281 46 424.984 46H406.234C405.891 46 405.625 45.9062 405.438 45.7188C405.25 45.5156 405.156 45.2812 405.156 45.0156C405.156 44.7656 405.242 44.5469 405.414 44.3594C405.586 44.1719 405.828 44.0781 406.141 44.0781H414.789V20.4531L406.516 21.1094L406.352 21.1328C406.055 21.1328 405.82 21.0391 405.648 20.8516C405.477 20.6484 405.391 20.4141 405.391 20.1484C405.391 19.9141 405.453 19.7109 405.578 19.5391C405.703 19.3516 405.891 19.2422 406.141 19.2109L415.938 18.3203ZM448.328 34.9844V34.5156C448.328 32.6875 447.969 31.2891 447.25 30.3203C446.547 29.3516 445.32 28.8672 443.57 28.8672C442.586 28.8672 441.68 28.9531 440.852 29.125C440.039 29.2812 439.219 29.5469 438.391 29.9219C438.328 31.125 438.188 32.0312 437.969 32.6406C437.75 33.25 437.375 33.5547 436.844 33.5547C436.391 33.5547 436.039 33.3984 435.789 33.0859C435.555 32.7734 435.438 32.3672 435.438 31.8672C435.438 30.9297 435.781 30.0859 436.469 29.3359C437.156 28.5859 438.117 28 439.352 27.5781C440.586 27.1562 442 26.9453 443.594 26.9453C445.391 26.9453 446.797 27.2812 447.812 27.9531C448.844 28.625 449.562 29.5938 449.969 30.8594C450.375 32.1094 450.578 33.6875 450.578 35.5938V42.9062C450.578 43.4531 450.688 43.8281 450.906 44.0312C451.125 44.2188 451.422 44.3125 451.797 44.3125C452.203 44.3125 452.633 44.1953 453.086 43.9609C453.539 43.7109 453.898 43.4453 454.164 43.1641C454.336 42.9766 454.523 42.8828 454.727 42.8828C454.961 42.8828 455.164 42.9844 455.336 43.1875C455.508 43.3906 455.594 43.6172 455.594 43.8672C455.594 44.1016 455.516 44.2969 455.359 44.4531C454.859 44.9844 454.281 45.4062 453.625 45.7188C452.984 46.0156 452.312 46.1641 451.609 46.1641C450.812 46.1641 450.141 45.9766 449.594 45.6016C449.047 45.2109 448.68 44.4609 448.492 43.3516C447.727 44.2109 446.648 44.9297 445.258 45.5078C443.883 46.0859 442.383 46.375 440.758 46.375C439.008 46.375 437.641 45.8984 436.656 44.9453C435.672 43.9766 435.18 42.6875 435.18 41.0781C435.18 39.4531 435.695 38.2266 436.727 37.3984C437.758 36.5703 439.023 36.0234 440.523 35.7578C442.039 35.4922 444.07 35.2734 446.617 35.1016L448.328 34.9844ZM445.07 43.7031C446.398 43.1719 447.484 42.4609 448.328 41.5703V36.6016L447.367 36.6953C444.805 36.9453 442.883 37.1875 441.602 37.4219C440.336 37.6406 439.328 38.0312 438.578 38.5938C437.828 39.1562 437.453 39.9844 437.453 41.0781C437.453 42.2656 437.773 43.1328 438.414 43.6797C439.07 44.2109 439.938 44.4766 441.016 44.4766C442.406 44.4766 443.758 44.2188 445.07 43.7031Z" fill="#100F09"/>
</svg>
