<svg width="300" height="330" viewBox="0 0 300 330" fill="none" xmlns="http://www.w3.org/2000/svg">
<path d="M300 186.5C300 127.788 259.433 70.1673 197.334 68.9385C161.332 68.2261 125.592 90.2762 118.5 127.5C112.846 161.991 130.962 193 166.5 193C180.261 193 194.63 185.566 196 170.5C196 165.528 194 159.22 191.167 159.22C187.5 160.5 184.5 163.335 180.006 163.335C168.298 162.822 163.924 147.87 170.5 139.5C174.757 133.584 180.572 131.08 187.919 132.111C208.5 135 217 153.122 217 170.5C217 182.037 212.996 191.842 204.088 200C195.008 208.315 183.574 213.432 170.5 214C147.5 215 135.5 210 119.774 197C105.428 182.653 98 160.03 98 139.741C101 85.5 147.153 53 195 53C228.016 55.5 243.5 61.5 275.5 87.5C285.362 94.8518 289.173 98.7974 292.515 96.5225C295.255 94.6577 290.137 87.7623 288.974 85.5H288.978C262.772 34.5317 212.15 0 154 0C68.9482 0 0 73.873 0 165C0 256.127 68.9482 330 154 330C230.527 330 300 264.267 300 186.5Z" fill="#6C8673"/>
</svg>
