<svg width="189" height="189" viewBox="0 0 189 189" fill="none" xmlns="http://www.w3.org/2000/svg">
<path d="M188 94C188 145.915 145.915 188 94 188C42.0852 188 7.6252e-09 145.915 7.6252e-09 94C7.6252e-09 42.0852 42.0852 2.5826e-08 94 2.5826e-08C145.915 2.5826e-08 188 42.0852 188 94Z" fill="#6C8673"/>
<path fill-rule="evenodd" clip-rule="evenodd" d="M79.0892 9.31804C74.2403 10.1789 69.3989 11.4697 64.6118 13.212C59.8243 14.9545 55.2856 17.078 51.0173 19.5356C40.1372 25.831 30.7643 34.4417 23.5724 44.694C16.3984 54.9586 11.5128 66.7111 9.31825 79.088C8.46861 83.9394 8.02558 88.9308 8.02558 94.0256C8.02558 99.1199 8.46854 104.111 9.31803 108.962C10.1789 113.811 11.4697 118.652 13.212 123.439C14.9545 128.227 17.0778 132.765 19.5354 137.033C25.8312 147.914 34.4428 157.288 44.696 164.48C54.9592 171.653 66.7098 176.538 79.0847 178.732C83.9372 179.582 88.9296 180.026 94.0256 180.026C99.1207 180.026 104.112 179.582 108.964 178.733C113.812 177.872 118.653 176.581 123.439 174.839C128.226 173.097 132.764 170.974 137.032 168.517C147.914 162.22 157.288 153.608 164.481 143.354C171.653 133.091 176.538 121.341 178.732 108.967C179.582 104.114 180.026 99.1216 180.026 94.0256C180.026 88.9305 179.583 83.9389 178.733 79.0872C177.872 74.2389 176.581 69.3983 174.839 64.6118C169.759 50.6554 159.344 39.2885 145.883 33.0117C132.422 26.735 117.02 26.0625 103.063 31.1422C89.1068 36.2219 77.7399 46.6378 71.4631 60.0984C65.1863 73.5589 64.5138 88.9617 69.5936 102.918C71.2105 107.361 73.6866 111.441 76.8805 114.927C80.0744 118.412 83.9236 121.234 88.2083 123.232C92.4929 125.23 97.1291 126.365 101.852 126.571C106.575 126.777 111.293 126.051 115.735 124.434C120.178 122.817 124.258 120.341 127.744 117.147C131.229 113.953 134.052 110.104 136.05 105.82C138.048 101.535 139.182 96.8988 139.388 92.1757C139.59 87.5497 138.898 82.929 137.35 78.5669C135.647 74.0458 132.24 70.3674 127.857 68.3232C123.41 66.2496 118.321 66.0274 113.711 67.7056C109.1 69.3837 105.345 72.8246 103.271 77.2714C101.243 81.6219 100.986 86.5865 102.547 91.117C103.113 92.5347 104.198 93.6862 105.585 94.3331C107.027 95.0056 108.678 95.0777 110.173 94.5334C111.668 93.9892 112.886 92.8732 113.559 91.431C114.231 89.9888 114.303 88.3385 113.759 86.8432C113.004 84.7673 114.074 82.4719 116.15 81.7163C118.226 80.9607 120.521 82.0311 121.277 84.107C122.547 87.5961 122.378 91.4468 120.809 94.8119C119.24 98.1771 116.398 100.781 112.909 102.051C109.42 103.321 105.569 103.153 102.204 101.584C99.1667 100.167 96.7493 97.7138 95.3735 94.6834C95.283 94.5151 95.2036 94.3382 95.1363 94.1534C95.1033 94.0627 95.0708 93.9719 95.0388 93.8809C95.0138 93.8153 94.9893 93.7496 94.9653 93.6836C94.9283 93.5819 94.8957 93.4798 94.8673 93.3772C92.7614 86.9816 93.1666 80.0117 96.021 73.8905C98.9912 67.5207 104.37 62.5918 110.975 60.188C117.579 57.7842 124.868 58.1025 131.238 61.0727C137.359 63.9271 142.149 69.0058 144.647 75.2589C144.691 75.3556 144.732 75.4548 144.769 75.5565C144.801 75.6448 144.833 75.7332 144.865 75.8216C144.89 75.8897 144.915 75.958 144.94 76.0263C144.965 76.0952 144.988 76.1643 145.009 76.2335C146.817 81.4643 147.622 86.9913 147.381 92.5246C147.129 98.2973 145.742 103.964 143.3 109.201C140.858 114.437 137.409 119.142 133.148 123.046C128.888 126.949 123.901 129.976 118.471 131.952C113.042 133.928 107.276 134.816 101.503 134.563C95.7306 134.311 90.0641 132.925 84.8273 130.483C79.5905 128.041 74.886 124.591 70.9823 120.331C67.0786 116.071 64.0523 111.084 62.076 105.654C56.2706 89.7041 57.0392 72.1009 64.2127 56.7174C71.3861 41.3339 84.3769 29.43 100.327 23.6247C114.063 18.6251 129.025 18.5011 142.739 23.1446C132.622 16.2041 121.093 11.469 108.964 9.31833C104.112 8.46864 99.1206 8.02558 94.0256 8.02558C88.9312 8.02558 83.9403 8.46854 79.0892 9.31804ZM175.446 47.0188C180.845 56.3494 184.685 66.694 186.612 77.6969C188.566 88.6993 188.495 99.7376 186.612 110.355C184.195 124.154 178.769 136.917 171.035 147.943C163.317 158.987 153.176 168.455 141.031 175.447C131.701 180.845 121.357 184.685 110.355 186.612C99.3523 188.566 88.3141 188.495 77.6963 186.612C63.8967 184.195 51.1327 178.768 40.1059 171.033C29.0642 163.316 19.5977 153.177 12.6061 141.034C7.20663 131.702 3.36543 121.356 1.43831 110.352C-0.514783 99.351 -0.443823 88.3146 1.4385 77.6985C3.85553 63.8972 9.28308 51.1318 17.0193 40.104C24.7358 29.0635 34.8745 19.5979 47.0159 12.6067C56.348 7.20687 66.6947 3.36543 77.6999 1.43825C88.7006 -0.514821 99.7371 -0.443802 110.353 1.43861C124.154 3.85555 136.918 9.28254 147.945 17.0179C158.987 24.7352 168.454 34.8754 175.446 47.0188Z" fill="#CCD6CF"/>
</svg>
