<svg width="459" height="64" viewBox="0 0 459 64" fill="none" xmlns="http://www.w3.org/2000/svg">
<path d="M73.6172 18.3906C73.8672 18.3594 74.0234 18.3438 74.0859 18.3438C74.7266 18.3438 75.0469 18.6484 75.0469 19.2578V29.4297C75.9844 28.6172 76.9688 28 78 27.5781C79.0469 27.1562 80.2812 26.9453 81.7031 26.9453C83.5 26.9453 85.0625 27.3672 86.3906 28.2109C87.7344 29.0391 88.7656 30.1953 89.4844 31.6797C90.2031 33.1484 90.5625 34.8125 90.5625 36.6719C90.5625 38.5625 90.2109 40.2422 89.5078 41.7109C88.8047 43.1797 87.7891 44.3281 86.4609 45.1562C85.1484 45.9844 83.5938 46.3984 81.7969 46.3984C80.3906 46.3984 79.1016 46.1406 77.9297 45.625C76.7578 45.1094 75.7656 44.4375 74.9531 43.6094C74.9531 44.3594 74.8984 44.9141 74.7891 45.2734C74.6797 45.6328 74.5391 45.8594 74.3672 45.9531C74.2109 46.0469 74.0078 46.0938 73.7578 46.0938C73.4609 46.0938 73.2266 45.9688 73.0547 45.7188C72.8828 45.4688 72.7969 44.9844 72.7969 44.2656V20.4297L69.7969 20.6172C69.7344 20.6328 69.6641 20.6484 69.5859 20.6641C69.5078 20.6797 69.4219 20.6875 69.3281 20.6875C69.0625 20.6875 68.8438 20.6016 68.6719 20.4297C68.5 20.2578 68.4141 20.0469 68.4141 19.7969C68.4141 19.5781 68.4766 19.375 68.6016 19.1875C68.7266 19 68.9219 18.8828 69.1875 18.8359L73.6172 18.3906ZM77.8125 43.5625C78.9375 44.1719 80.25 44.4766 81.75 44.4766C83.1562 44.4766 84.3516 44.125 85.3359 43.4219C86.3203 42.7188 87.0625 41.7812 87.5625 40.6094C88.0625 39.4219 88.3125 38.1094 88.3125 36.6719C88.3125 35.25 88.0547 33.9453 87.5391 32.7578C87.0234 31.5703 86.2578 30.625 85.2422 29.9219C84.2266 29.2188 83 28.8672 81.5625 28.8672C78.8281 28.8672 76.6562 29.875 75.0469 31.8906V41.0781C75.7812 42.125 76.7031 42.9531 77.8125 43.5625ZM114.141 34.9844V34.5156C114.141 32.6875 113.781 31.2891 113.062 30.3203C112.359 29.3516 111.133 28.8672 109.383 28.8672C108.398 28.8672 107.492 28.9531 106.664 29.125C105.852 29.2812 105.031 29.5469 104.203 29.9219C104.141 31.125 104 32.0312 103.781 32.6406C103.562 33.25 103.188 33.5547 102.656 33.5547C102.203 33.5547 101.852 33.3984 101.602 33.0859C101.367 32.7734 101.25 32.3672 101.25 31.8672C101.25 30.9297 101.594 30.0859 102.281 29.3359C102.969 28.5859 103.93 28 105.164 27.5781C106.398 27.1562 107.812 26.9453 109.406 26.9453C111.203 26.9453 112.609 27.2812 113.625 27.9531C114.656 28.625 115.375 29.5938 115.781 30.8594C116.188 32.1094 116.391 33.6875 116.391 35.5938V42.9062C116.391 43.4531 116.5 43.8281 116.719 44.0312C116.938 44.2188 117.234 44.3125 117.609 44.3125C118.016 44.3125 118.445 44.1953 118.898 43.9609C119.352 43.7109 119.711 43.4453 119.977 43.1641C120.148 42.9766 120.336 42.8828 120.539 42.8828C120.773 42.8828 120.977 42.9844 121.148 43.1875C121.32 43.3906 121.406 43.6172 121.406 43.8672C121.406 44.1016 121.328 44.2969 121.172 44.4531C120.672 44.9844 120.094 45.4062 119.438 45.7188C118.797 46.0156 118.125 46.1641 117.422 46.1641C116.625 46.1641 115.953 45.9766 115.406 45.6016C114.859 45.2109 114.492 44.4609 114.305 43.3516C113.539 44.2109 112.461 44.9297 111.07 45.5078C109.695 46.0859 108.195 46.375 106.57 46.375C104.82 46.375 103.453 45.8984 102.469 44.9453C101.484 43.9766 100.992 42.6875 100.992 41.0781C100.992 39.4531 101.508 38.2266 102.539 37.3984C103.57 36.5703 104.836 36.0234 106.336 35.7578C107.852 35.4922 109.883 35.2734 112.43 35.1016L114.141 34.9844ZM110.883 43.7031C112.211 43.1719 113.297 42.4609 114.141 41.5703V36.6016L113.18 36.6953C110.617 36.9453 108.695 37.1875 107.414 37.4219C106.148 37.6406 105.141 38.0312 104.391 38.5938C103.641 39.1562 103.266 39.9844 103.266 41.0781C103.266 42.2656 103.586 43.1328 104.227 43.6797C104.883 44.2109 105.75 44.4766 106.828 44.4766C108.219 44.4766 109.57 44.2188 110.883 43.7031ZM146.016 32.5938C145.797 32.375 145.688 32.0703 145.688 31.6797V28.8672C143.594 28.8672 141.742 29.2812 140.133 30.1094C138.523 30.9219 137.406 32.1094 136.781 33.6719V44.0781H144.656C144.953 44.0781 145.18 44.1719 145.336 44.3594C145.508 44.5469 145.594 44.7734 145.594 45.0391C145.594 45.2891 145.508 45.5156 145.336 45.7188C145.164 45.9062 144.93 46 144.633 46H130.336C129.992 46 129.727 45.9062 129.539 45.7188C129.352 45.5156 129.258 45.2812 129.258 45.0156C129.258 44.7656 129.344 44.5469 129.516 44.3594C129.688 44.1719 129.93 44.0781 130.242 44.0781H134.531V29.3828L131.672 29.9688C131.609 29.9844 131.516 29.9922 131.391 29.9922C131.094 29.9922 130.859 29.8984 130.688 29.7109C130.531 29.5234 130.453 29.3047 130.453 29.0547C130.453 28.8359 130.516 28.6484 130.641 28.4922C130.766 28.3203 130.938 28.2109 131.156 28.1641L135.164 27.3672C135.367 27.3203 135.547 27.2969 135.703 27.2969C136.047 27.2969 136.273 27.4062 136.383 27.625C136.508 27.8438 136.578 28.1719 136.594 28.6094L136.688 31.0469C138.469 28.3125 141.531 26.9453 145.875 26.9453C146.625 26.9453 147.156 27.0625 147.469 27.2969C147.781 27.5312 147.938 27.8828 147.938 28.3516V31.5859C147.938 32.0078 147.82 32.3359 147.586 32.5703C147.367 32.7891 147.102 32.8984 146.789 32.8984C146.492 32.8984 146.234 32.7969 146.016 32.5938ZM159.492 41.7812C158.602 40.2812 158.156 38.5078 158.156 36.4609C158.156 34.5234 158.617 32.8359 159.539 31.3984C160.477 29.9609 161.727 28.8594 163.289 28.0938C164.867 27.3281 166.609 26.9453 168.516 26.9453C170.141 26.9453 171.586 27.25 172.852 27.8594C174.133 28.4531 175.133 29.3359 175.852 30.5078C176.586 31.6797 176.953 33.1016 176.953 34.7734C176.953 35.3672 176.789 35.8594 176.461 36.25C176.133 36.625 175.695 36.8125 175.148 36.8125L160.406 36.9297C160.484 39.3984 161.266 41.2734 162.75 42.5547C164.234 43.8359 166.18 44.4766 168.586 44.4766C169.758 44.4766 170.906 44.2656 172.031 43.8438C173.172 43.4062 174.188 42.7656 175.078 41.9219C175.406 41.6562 175.727 41.5234 176.039 41.5234C176.32 41.5234 176.547 41.625 176.719 41.8281C176.891 42.0312 176.977 42.2734 176.977 42.5547C176.977 42.8984 176.836 43.2266 176.555 43.5391C175.742 44.4141 174.57 45.1094 173.039 45.625C171.523 46.1406 170.102 46.3984 168.773 46.3984C166.68 46.3984 164.828 46 163.219 45.2031C161.625 44.4062 160.383 43.2656 159.492 41.7812ZM173.508 30.7188C172.648 29.4844 171 28.8672 168.562 28.8672C166.281 28.8672 164.43 29.4219 163.008 30.5312C161.602 31.6406 160.758 33.1953 160.477 35.1953L174.961 35.1016C174.852 33.4141 174.367 31.9531 173.508 30.7188ZM206.133 18.4844C206.398 18.7031 206.531 18.9922 206.531 19.3516V22.0938C206.531 22.5156 206.414 22.8438 206.18 23.0781C205.961 23.2969 205.695 23.4062 205.383 23.4062C205.086 23.4062 204.828 23.3047 204.609 23.1016C204.391 22.8828 204.281 22.5781 204.281 22.1875V20.0078C202.453 20.1328 201.031 20.4297 200.016 20.8984C199.016 21.3516 198.305 22.0234 197.883 22.9141C197.477 23.8047 197.273 25 197.273 26.5V28.0469H204.516C204.812 28.0469 205.039 28.1484 205.195 28.3516C205.367 28.5391 205.453 28.7578 205.453 29.0078C205.453 29.2734 205.367 29.5 205.195 29.6875C205.023 29.875 204.789 29.9688 204.492 29.9688H197.25L197.273 44.0781H205.758C206.039 44.0781 206.258 44.1797 206.414 44.3828C206.586 44.5703 206.672 44.7891 206.672 45.0391C206.672 45.3047 206.586 45.5312 206.414 45.7188C206.258 45.9062 206.031 46 205.734 46H189.914C189.57 46 189.305 45.9062 189.117 45.7188C188.93 45.5156 188.836 45.2812 188.836 45.0156C188.836 44.7656 188.922 44.5469 189.094 44.3594C189.266 44.1719 189.508 44.0781 189.82 44.0781H195V29.9688H190.5C190.156 29.9688 189.891 29.875 189.703 29.6875C189.516 29.4844 189.422 29.25 189.422 28.9844C189.422 28.7344 189.508 28.5156 189.68 28.3281C189.852 28.1406 190.094 28.0469 190.406 28.0469H195V26.3594C195 23.5938 195.875 21.5391 197.625 20.1953C199.391 18.8359 201.914 18.1562 205.195 18.1562C205.57 18.1562 205.883 18.2656 206.133 18.4844ZM217.148 41.8047C216.32 40.3359 215.906 38.625 215.906 36.6719C215.906 34.7031 216.32 32.9844 217.148 31.5156C217.977 30.0469 219.141 28.9219 220.641 28.1406C222.141 27.3438 223.875 26.9453 225.844 26.9453C227.812 26.9453 229.547 27.3438 231.047 28.1406C232.547 28.9219 233.711 30.0469 234.539 31.5156C235.367 32.9844 235.781 34.7031 235.781 36.6719C235.781 38.625 235.367 40.3359 234.539 41.8047C233.711 43.2734 232.547 44.4062 231.047 45.2031C229.547 46 227.812 46.3984 225.844 46.3984C223.875 46.3984 222.141 46 220.641 45.2031C219.141 44.4062 217.977 43.2734 217.148 41.8047ZM219.305 32.6406C218.727 33.8125 218.438 35.1562 218.438 36.6719C218.438 38.2031 218.727 39.5625 219.305 40.75C219.898 41.9219 220.75 42.8359 221.859 43.4922C222.984 44.1484 224.312 44.4766 225.844 44.4766C227.375 44.4766 228.695 44.1484 229.805 43.4922C230.93 42.8359 231.781 41.9219 232.359 40.75C232.953 39.5625 233.25 38.2031 233.25 36.6719C233.25 35.1562 232.953 33.8125 232.359 32.6406C231.781 31.4531 230.93 30.5312 229.805 29.875C228.695 29.2031 227.375 28.8672 225.844 28.8672C224.312 28.8672 222.984 29.2031 221.859 29.875C220.75 30.5312 219.898 31.4531 219.305 32.6406ZM246.211 41.8047C245.383 40.3359 244.969 38.625 244.969 36.6719C244.969 34.7031 245.383 32.9844 246.211 31.5156C247.039 30.0469 248.203 28.9219 249.703 28.1406C251.203 27.3438 252.938 26.9453 254.906 26.9453C256.875 26.9453 258.609 27.3438 260.109 28.1406C261.609 28.9219 262.773 30.0469 263.602 31.5156C264.43 32.9844 264.844 34.7031 264.844 36.6719C264.844 38.625 264.43 40.3359 263.602 41.8047C262.773 43.2734 261.609 44.4062 260.109 45.2031C258.609 46 256.875 46.3984 254.906 46.3984C252.938 46.3984 251.203 46 249.703 45.2031C248.203 44.4062 247.039 43.2734 246.211 41.8047ZM248.367 32.6406C247.789 33.8125 247.5 35.1562 247.5 36.6719C247.5 38.2031 247.789 39.5625 248.367 40.75C248.961 41.9219 249.812 42.8359 250.922 43.4922C252.047 44.1484 253.375 44.4766 254.906 44.4766C256.438 44.4766 257.758 44.1484 258.867 43.4922C259.992 42.8359 260.844 41.9219 261.422 40.75C262.016 39.5625 262.312 38.2031 262.312 36.6719C262.312 35.1562 262.016 33.8125 261.422 32.6406C260.844 31.4531 259.992 30.5312 258.867 29.875C257.758 29.2031 256.438 28.8672 254.906 28.8672C253.375 28.8672 252.047 29.2031 250.922 29.875C249.812 30.5312 248.961 31.4531 248.367 32.6406ZM289.969 29.7812H281.273V41.2188C281.273 42.3438 281.641 43.1719 282.375 43.7031C283.125 44.2188 284.102 44.4766 285.305 44.4766C286.398 44.4766 287.531 44.2891 288.703 43.9141C289.891 43.5234 290.859 43.0469 291.609 42.4844C291.672 42.4219 291.758 42.3906 291.867 42.3906C292.086 42.3906 292.305 42.5234 292.523 42.7891C292.742 43.0547 292.852 43.3203 292.852 43.5859C292.852 43.7109 292.812 43.8281 292.734 43.9375C292.406 44.3281 291.836 44.7188 291.023 45.1094C290.227 45.4844 289.297 45.7891 288.234 46.0234C287.172 46.2734 286.117 46.3984 285.07 46.3984C284.008 46.3984 283.008 46.2031 282.07 45.8125C281.148 45.4062 280.406 44.8672 279.844 44.1953C279.297 43.5234 279.023 42.8047 279.023 42.0391V29.7812H275.672C275.328 29.7812 275.062 29.6797 274.875 29.4766C274.688 29.2734 274.594 29.0391 274.594 28.7734C274.594 28.5234 274.68 28.3125 274.852 28.1406C275.023 27.9531 275.266 27.8594 275.578 27.8594H279.023C279.023 25.9062 279.047 24.5078 279.094 23.6641C279.141 22.8203 279.258 22.2031 279.445 21.8125C279.648 21.4062 279.977 21.2031 280.43 21.2031C280.773 21.2031 281 21.2969 281.109 21.4844C281.219 21.6562 281.273 21.9141 281.273 22.2578V27.8594H289.992C290.273 27.8594 290.492 27.9609 290.648 28.1641C290.82 28.3516 290.906 28.5703 290.906 28.8203C290.906 29.0859 290.82 29.3125 290.648 29.5C290.492 29.6875 290.266 29.7812 289.969 29.7812Z" fill="#E4DED2"/>
<path d="M328.586 46.0703H328.422C328.109 46.0703 327.852 45.9766 327.648 45.7891C327.445 45.5859 327.336 45.2891 327.32 44.8984L327.25 43.4922C326.531 44.3516 325.562 45.0547 324.344 45.6016C323.141 46.1328 321.82 46.3984 320.383 46.3984C318.586 46.3984 317.016 45.9844 315.672 45.1562C314.344 44.3281 313.32 43.1797 312.602 41.7109C311.883 40.2422 311.523 38.5625 311.523 36.6719C311.523 34.8125 311.883 33.1484 312.602 31.6797C313.32 30.1953 314.344 29.0391 315.672 28.2109C317.016 27.3672 318.586 26.9453 320.383 26.9453C321.805 26.9453 323.031 27.1562 324.062 27.5781C325.109 28 326.102 28.6172 327.039 29.4297V20.4297L324.039 20.6172C323.977 20.6328 323.906 20.6484 323.828 20.6641C323.75 20.6797 323.664 20.6875 323.57 20.6875C323.305 20.6875 323.086 20.6016 322.914 20.4297C322.742 20.2578 322.656 20.0469 322.656 19.7969C322.656 19.5781 322.719 19.375 322.844 19.1875C322.969 19 323.164 18.8828 323.43 18.8359L327.859 18.3906C328.109 18.3594 328.266 18.3438 328.328 18.3438C328.969 18.3438 329.289 18.6484 329.289 19.2578V44.0078L332.758 43.75H332.898C333.211 43.75 333.445 43.8281 333.602 43.9844C333.758 44.1406 333.836 44.3359 333.836 44.5703C333.836 44.8047 333.758 45.0234 333.602 45.2266C333.445 45.4141 333.227 45.5391 332.945 45.6016L328.586 46.0703ZM327.039 31.8906C325.43 29.875 323.258 28.8672 320.523 28.8672C319.086 28.8672 317.859 29.2188 316.844 29.9219C315.828 30.625 315.062 31.5703 314.547 32.7578C314.031 33.9453 313.773 35.25 313.773 36.6719C313.773 38.0938 314.031 39.3984 314.547 40.5859C315.062 41.7734 315.82 42.7188 316.82 43.4219C317.82 44.125 319.023 44.4766 320.43 44.4766C323.258 44.4766 325.461 43.3438 327.039 41.0781V31.8906ZM341.898 41.8047C341.07 40.3359 340.656 38.625 340.656 36.6719C340.656 34.7031 341.07 32.9844 341.898 31.5156C342.727 30.0469 343.891 28.9219 345.391 28.1406C346.891 27.3438 348.625 26.9453 350.594 26.9453C352.562 26.9453 354.297 27.3438 355.797 28.1406C357.297 28.9219 358.461 30.0469 359.289 31.5156C360.117 32.9844 360.531 34.7031 360.531 36.6719C360.531 38.625 360.117 40.3359 359.289 41.8047C358.461 43.2734 357.297 44.4062 355.797 45.2031C354.297 46 352.562 46.3984 350.594 46.3984C348.625 46.3984 346.891 46 345.391 45.2031C343.891 44.4062 342.727 43.2734 341.898 41.8047ZM344.055 32.6406C343.477 33.8125 343.188 35.1562 343.188 36.6719C343.188 38.2031 343.477 39.5625 344.055 40.75C344.648 41.9219 345.5 42.8359 346.609 43.4922C347.734 44.1484 349.062 44.4766 350.594 44.4766C352.125 44.4766 353.445 44.1484 354.555 43.4922C355.68 42.8359 356.531 41.9219 357.109 40.75C357.703 39.5625 358 38.2031 358 36.6719C358 35.1562 357.703 33.8125 357.109 32.6406C356.531 31.4531 355.68 30.5312 354.555 29.875C353.445 29.2031 352.125 28.8672 350.594 28.8672C349.062 28.8672 347.734 29.2031 346.609 29.875C345.5 30.5312 344.648 31.4531 344.055 32.6406ZM373.703 28V39.9297C373.703 41.2891 374.086 42.3906 374.852 43.2344C375.633 44.0625 376.781 44.4766 378.297 44.4766C379.219 44.4766 380.164 44.3047 381.133 43.9609C382.102 43.6172 382.969 43.1484 383.734 42.5547C384.516 41.9609 385.078 41.3047 385.422 40.5859V29.4531L383.148 29.9219C383.008 29.9688 382.867 29.9922 382.727 29.9922C382.398 29.9922 382.133 29.8906 381.93 29.6875C381.727 29.4844 381.625 29.25 381.625 28.9844C381.625 28.7656 381.695 28.5781 381.836 28.4219C381.992 28.25 382.219 28.1328 382.516 28.0703L386.594 27.25C386.719 27.2188 386.812 27.2031 386.875 27.2031C387.109 27.2031 387.297 27.2812 387.438 27.4375C387.594 27.5938 387.672 27.7812 387.672 28V44.0078L391.141 43.75H391.281C391.594 43.75 391.828 43.8281 391.984 43.9844C392.141 44.1406 392.219 44.3359 392.219 44.5703C392.219 44.8047 392.141 45.0234 391.984 45.2266C391.828 45.4141 391.609 45.5391 391.328 45.6016L386.969 46.0703H386.805C386.492 46.0703 386.234 45.9766 386.031 45.7891C385.828 45.5859 385.719 45.2891 385.703 44.8984L385.586 42.8594C384.898 43.875 383.875 44.7188 382.516 45.3906C381.156 46.0625 379.742 46.3984 378.273 46.3984C376.867 46.3984 375.648 46.125 374.617 45.5781C373.586 45.0312 372.797 44.2656 372.25 43.2812C371.719 42.2969 371.453 41.1562 371.453 39.8594V29.4531L369.156 29.9219C369.062 29.9531 368.93 29.9688 368.758 29.9688C368.445 29.9688 368.188 29.8672 367.984 29.6641C367.781 29.4609 367.68 29.2266 367.68 28.9609C367.68 28.7422 367.75 28.5547 367.891 28.3984C368.031 28.2422 368.242 28.1328 368.523 28.0703L372.625 27.25C372.75 27.2188 372.844 27.2031 372.906 27.2031C373.141 27.2031 373.328 27.2812 373.469 27.4375C373.625 27.5938 373.703 27.7812 373.703 28ZM409.938 18.3203L410.195 18.2969C410.445 18.2969 410.648 18.3672 410.805 18.5078C410.961 18.6328 411.039 18.8125 411.039 19.0469V44.0781H419.008C419.289 44.0781 419.508 44.1797 419.664 44.3828C419.836 44.5703 419.922 44.7891 419.922 45.0391C419.922 45.3047 419.836 45.5312 419.664 45.7188C419.508 45.9062 419.281 46 418.984 46H400.234C399.891 46 399.625 45.9062 399.438 45.7188C399.25 45.5156 399.156 45.2812 399.156 45.0156C399.156 44.7656 399.242 44.5469 399.414 44.3594C399.586 44.1719 399.828 44.0781 400.141 44.0781H408.789V20.4531L400.516 21.1094L400.352 21.1328C400.055 21.1328 399.82 21.0391 399.648 20.8516C399.477 20.6484 399.391 20.4141 399.391 20.1484C399.391 19.9141 399.453 19.7109 399.578 19.5391C399.703 19.3516 399.891 19.2422 400.141 19.2109L409.938 18.3203ZM442.328 34.9844V34.5156C442.328 32.6875 441.969 31.2891 441.25 30.3203C440.547 29.3516 439.32 28.8672 437.57 28.8672C436.586 28.8672 435.68 28.9531 434.852 29.125C434.039 29.2812 433.219 29.5469 432.391 29.9219C432.328 31.125 432.188 32.0312 431.969 32.6406C431.75 33.25 431.375 33.5547 430.844 33.5547C430.391 33.5547 430.039 33.3984 429.789 33.0859C429.555 32.7734 429.438 32.3672 429.438 31.8672C429.438 30.9297 429.781 30.0859 430.469 29.3359C431.156 28.5859 432.117 28 433.352 27.5781C434.586 27.1562 436 26.9453 437.594 26.9453C439.391 26.9453 440.797 27.2812 441.812 27.9531C442.844 28.625 443.562 29.5938 443.969 30.8594C444.375 32.1094 444.578 33.6875 444.578 35.5938V42.9062C444.578 43.4531 444.688 43.8281 444.906 44.0312C445.125 44.2188 445.422 44.3125 445.797 44.3125C446.203 44.3125 446.633 44.1953 447.086 43.9609C447.539 43.7109 447.898 43.4453 448.164 43.1641C448.336 42.9766 448.523 42.8828 448.727 42.8828C448.961 42.8828 449.164 42.9844 449.336 43.1875C449.508 43.3906 449.594 43.6172 449.594 43.8672C449.594 44.1016 449.516 44.2969 449.359 44.4531C448.859 44.9844 448.281 45.4062 447.625 45.7188C446.984 46.0156 446.312 46.1641 445.609 46.1641C444.812 46.1641 444.141 45.9766 443.594 45.6016C443.047 45.2109 442.68 44.4609 442.492 43.3516C441.727 44.2109 440.648 44.9297 439.258 45.5078C437.883 46.0859 436.383 46.375 434.758 46.375C433.008 46.375 431.641 45.8984 430.656 44.9453C429.672 43.9766 429.18 42.6875 429.18 41.0781C429.18 39.4531 429.695 38.2266 430.727 37.3984C431.758 36.5703 433.023 36.0234 434.523 35.7578C436.039 35.4922 438.07 35.2734 440.617 35.1016L442.328 34.9844ZM439.07 43.7031C440.398 43.1719 441.484 42.4609 442.328 41.5703V36.6016L441.367 36.6953C438.805 36.9453 436.883 37.1875 435.602 37.4219C434.336 37.6406 433.328 38.0312 432.578 38.5938C431.828 39.1562 431.453 39.9844 431.453 41.0781C431.453 42.2656 431.773 43.1328 432.414 43.6797C433.07 44.2109 433.938 44.4766 435.016 44.4766C436.406 44.4766 437.758 44.2188 439.07 43.7031Z" fill="#E4DED2"/>
<path d="M58.1818 36.1697C58.1818 24.7831 50.3143 13.6082 38.2708 13.3699C31.2886 13.2317 24.3573 17.5081 22.9818 24.7273C21.8852 31.4165 25.3986 37.4303 32.2909 37.4303C34.9596 37.4303 37.7465 35.9886 38.0121 33.0667C38.0121 32.1024 37.6242 30.8791 37.0749 30.8791C36.3636 31.1273 35.7818 31.677 34.9102 31.677C32.6395 31.5777 31.7913 28.6777 33.0667 27.0545C33.8922 25.9073 35.02 25.4216 36.445 25.6216C40.4364 26.1818 42.0848 29.6964 42.0849 33.0667C42.0849 35.3041 41.3082 37.2057 39.5806 38.7879C37.8198 40.4004 35.6022 41.3928 33.0667 41.503C28.6061 41.697 26.2788 40.7273 23.2289 38.2061C20.4466 35.4237 19.0061 31.0361 19.0061 27.1013C19.5879 16.5818 28.5388 10.2788 37.8182 10.2788C44.2214 10.7636 47.2242 11.9273 53.4303 16.9697C55.3429 18.3955 56.082 19.1607 56.7302 18.7195C57.2615 18.3579 56.2689 17.0206 56.0434 16.5818H56.0443C50.9619 6.69706 41.1442 0 29.8667 0C13.3718 0 0 14.3269 0 32C0 49.6731 13.3718 64 29.8667 64C44.7083 64 58.1818 51.2517 58.1818 36.1697Z" fill="#6C8673"/>
</svg>
