<svg width="246" height="64" viewBox="0 0 246 64" fill="none" xmlns="http://www.w3.org/2000/svg">
<mask id="mask0_71_106" style="mask-type:alpha" maskUnits="userSpaceOnUse" x="0" y="0" width="246" height="64">
<rect width="246" height="64" fill="#D9D9D9"/>
</mask>
<g mask="url(#mask0_71_106)">
<path d="M77.7129 5.29297C77.9004 5.26953 78.0176 5.25781 78.0645 5.25781C78.5449 5.25781 78.7852 5.48633 78.7852 5.94336V13.5723C79.4883 12.9629 80.2266 12.5 81 12.1836C81.7852 11.8672 82.7109 11.709 83.7773 11.709C85.125 11.709 86.2969 12.0254 87.293 12.6582C88.3008 13.2793 89.0742 14.1465 89.6133 15.2598C90.1523 16.3613 90.4219 17.6094 90.4219 19.0039C90.4219 20.4219 90.1582 21.6816 89.6309 22.7832C89.1035 23.8848 88.3418 24.7461 87.3457 25.3672C86.3613 25.9883 85.1953 26.2988 83.8477 26.2988C82.793 26.2988 81.8262 26.1055 80.9473 25.7188C80.0684 25.332 79.3242 24.8281 78.7148 24.207C78.7148 24.7695 78.6738 25.1855 78.5918 25.4551C78.5098 25.7246 78.4043 25.8945 78.2754 25.9648C78.1582 26.0352 78.0059 26.0703 77.8184 26.0703C77.5957 26.0703 77.4199 25.9766 77.291 25.7891C77.1621 25.6016 77.0977 25.2383 77.0977 24.6992V6.82227L74.8477 6.96289C74.8008 6.97461 74.748 6.98633 74.6895 6.99805C74.6309 7.00977 74.5664 7.01562 74.4961 7.01562C74.2969 7.01562 74.1328 6.95117 74.0039 6.82227C73.875 6.69336 73.8105 6.53516 73.8105 6.34766C73.8105 6.18359 73.8574 6.03125 73.9512 5.89062C74.0449 5.75 74.1914 5.66211 74.3906 5.62695L77.7129 5.29297ZM80.8594 24.1719C81.7031 24.6289 82.6875 24.8574 83.8125 24.8574C84.8672 24.8574 85.7637 24.5938 86.502 24.0664C87.2402 23.5391 87.7969 22.8359 88.1719 21.957C88.5469 21.0664 88.7344 20.082 88.7344 19.0039C88.7344 17.9375 88.541 16.959 88.1543 16.0684C87.7676 15.1777 87.1934 14.4688 86.4316 13.9414C85.6699 13.4141 84.75 13.1504 83.6719 13.1504C81.6211 13.1504 79.9922 13.9062 78.7852 15.418V22.3086C79.3359 23.0938 80.0273 23.7148 80.8594 24.1719ZM108.105 17.7383V17.3867C108.105 16.0156 107.836 14.9668 107.297 14.2402C106.77 13.5137 105.85 13.1504 104.537 13.1504C103.799 13.1504 103.119 13.2148 102.498 13.3438C101.889 13.4609 101.273 13.6602 100.652 13.9414C100.605 14.8438 100.5 15.5234 100.336 15.9805C100.172 16.4375 99.8906 16.666 99.4922 16.666C99.1523 16.666 98.8887 16.5488 98.7012 16.3145C98.5254 16.0801 98.4375 15.7754 98.4375 15.4004C98.4375 14.6973 98.6953 14.0645 99.2109 13.502C99.7266 12.9395 100.447 12.5 101.373 12.1836C102.299 11.8672 103.359 11.709 104.555 11.709C105.902 11.709 106.957 11.9609 107.719 12.4648C108.492 12.9688 109.031 13.6953 109.336 14.6445C109.641 15.582 109.793 16.7656 109.793 18.1953V23.6797C109.793 24.0898 109.875 24.3711 110.039 24.5234C110.203 24.6641 110.426 24.7344 110.707 24.7344C111.012 24.7344 111.334 24.6465 111.674 24.4707C112.014 24.2832 112.283 24.084 112.482 23.873C112.611 23.7324 112.752 23.6621 112.904 23.6621C113.08 23.6621 113.232 23.7383 113.361 23.8906C113.49 24.043 113.555 24.2129 113.555 24.4004C113.555 24.5762 113.496 24.7227 113.379 24.8398C113.004 25.2383 112.57 25.5547 112.078 25.7891C111.598 26.0117 111.094 26.123 110.566 26.123C109.969 26.123 109.465 25.9824 109.055 25.7012C108.645 25.4082 108.369 24.8457 108.229 24.0137C107.654 24.6582 106.846 25.1973 105.803 25.6309C104.771 26.0645 103.646 26.2812 102.428 26.2812C101.115 26.2812 100.09 25.9238 99.3516 25.209C98.6133 24.4824 98.2441 23.5156 98.2441 22.3086C98.2441 21.0898 98.6309 20.1699 99.4043 19.5488C100.178 18.9277 101.127 18.5176 102.252 18.3184C103.389 18.1191 104.912 17.9551 106.822 17.8262L108.105 17.7383ZM105.662 24.2773C106.658 23.8789 107.473 23.3457 108.105 22.6777V18.9512L107.385 19.0215C105.463 19.209 104.021 19.3906 103.061 19.5664C102.111 19.7305 101.355 20.0234 100.793 20.4453C100.23 20.8672 99.9492 21.4883 99.9492 22.3086C99.9492 23.1992 100.189 23.8496 100.67 24.2598C101.162 24.6582 101.812 24.8574 102.621 24.8574C103.664 24.8574 104.678 24.6641 105.662 24.2773ZM132.012 15.9453C131.848 15.7812 131.766 15.5527 131.766 15.2598V13.1504C130.195 13.1504 128.807 13.4609 127.6 14.082C126.393 14.6914 125.555 15.582 125.086 16.7539V24.5586H130.992C131.215 24.5586 131.385 24.6289 131.502 24.7695C131.631 24.9102 131.695 25.0801 131.695 25.2793C131.695 25.4668 131.631 25.6367 131.502 25.7891C131.373 25.9297 131.197 26 130.975 26H120.252C119.994 26 119.795 25.9297 119.654 25.7891C119.514 25.6367 119.443 25.4609 119.443 25.2617C119.443 25.0742 119.508 24.9102 119.637 24.7695C119.766 24.6289 119.947 24.5586 120.182 24.5586H123.398V13.5371L121.254 13.9766C121.207 13.9883 121.137 13.9941 121.043 13.9941C120.82 13.9941 120.645 13.9238 120.516 13.7832C120.398 13.6426 120.34 13.4785 120.34 13.291C120.34 13.127 120.387 12.9863 120.48 12.8691C120.574 12.7402 120.703 12.6582 120.867 12.623L123.873 12.0254C124.025 11.9902 124.16 11.9727 124.277 11.9727C124.535 11.9727 124.705 12.0547 124.787 12.2188C124.881 12.3828 124.934 12.6289 124.945 12.957L125.016 14.7852C126.352 12.7344 128.648 11.709 131.906 11.709C132.469 11.709 132.867 11.7969 133.102 11.9727C133.336 12.1484 133.453 12.4121 133.453 12.7637V15.1895C133.453 15.5059 133.365 15.752 133.189 15.9277C133.025 16.0918 132.826 16.1738 132.592 16.1738C132.369 16.1738 132.176 16.0977 132.012 15.9453ZM142.119 22.8359C141.451 21.7109 141.117 20.3809 141.117 18.8457C141.117 17.3926 141.463 16.127 142.154 15.0488C142.857 13.9707 143.795 13.1445 144.967 12.5703C146.15 11.9961 147.457 11.709 148.887 11.709C150.105 11.709 151.189 11.9375 152.139 12.3945C153.1 12.8398 153.85 13.502 154.389 14.3809C154.939 15.2598 155.215 16.3262 155.215 17.5801C155.215 18.0254 155.092 18.3945 154.846 18.6875C154.6 18.9688 154.271 19.1094 153.861 19.1094L142.805 19.1973C142.863 21.0488 143.449 22.4551 144.562 23.416C145.676 24.377 147.135 24.8574 148.939 24.8574C149.818 24.8574 150.68 24.6992 151.523 24.3828C152.379 24.0547 153.141 23.5742 153.809 22.9414C154.055 22.7422 154.295 22.6426 154.529 22.6426C154.74 22.6426 154.91 22.7188 155.039 22.8711C155.168 23.0234 155.232 23.2051 155.232 23.416C155.232 23.6738 155.127 23.9199 154.916 24.1543C154.307 24.8105 153.428 25.332 152.279 25.7188C151.143 26.1055 150.076 26.2988 149.08 26.2988C147.51 26.2988 146.121 26 144.914 25.4023C143.719 24.8047 142.787 23.9492 142.119 22.8359ZM152.631 14.5391C151.986 13.6133 150.75 13.1504 148.922 13.1504C147.211 13.1504 145.822 13.5664 144.756 14.3984C143.701 15.2305 143.068 16.3965 142.857 17.8965L153.721 17.8262C153.639 16.5605 153.275 15.4648 152.631 14.5391ZM177.1 5.36328C177.299 5.52734 177.398 5.74414 177.398 6.01367V8.07031C177.398 8.38672 177.311 8.63281 177.135 8.80859C176.971 8.97266 176.771 9.05469 176.537 9.05469C176.314 9.05469 176.121 8.97852 175.957 8.82617C175.793 8.66211 175.711 8.43359 175.711 8.14062V6.50586C174.34 6.59961 173.273 6.82227 172.512 7.17383C171.762 7.51367 171.229 8.01758 170.912 8.68555C170.607 9.35352 170.455 10.25 170.455 11.375V12.5352H175.887C176.109 12.5352 176.279 12.6113 176.396 12.7637C176.525 12.9043 176.59 13.0684 176.59 13.2559C176.59 13.4551 176.525 13.625 176.396 13.7656C176.268 13.9062 176.092 13.9766 175.869 13.9766H170.438L170.455 24.5586H176.818C177.029 24.5586 177.193 24.6348 177.311 24.7871C177.439 24.9277 177.504 25.0918 177.504 25.2793C177.504 25.4785 177.439 25.6484 177.311 25.7891C177.193 25.9297 177.023 26 176.801 26H164.936C164.678 26 164.479 25.9297 164.338 25.7891C164.197 25.6367 164.127 25.4609 164.127 25.2617C164.127 25.0742 164.191 24.9102 164.32 24.7695C164.449 24.6289 164.631 24.5586 164.865 24.5586H168.75V13.9766H165.375C165.117 13.9766 164.918 13.9062 164.777 13.7656C164.637 13.6133 164.566 13.4375 164.566 13.2383C164.566 13.0508 164.631 12.8867 164.76 12.7461C164.889 12.6055 165.07 12.5352 165.305 12.5352H168.75V11.2695C168.75 9.19531 169.406 7.6543 170.719 6.64648C172.043 5.62695 173.936 5.11719 176.396 5.11719C176.678 5.11719 176.912 5.19922 177.1 5.36328ZM185.361 22.8535C184.74 21.752 184.43 20.4688 184.43 19.0039C184.43 17.5273 184.74 16.2383 185.361 15.1367C185.982 14.0352 186.855 13.1914 187.98 12.6055C189.105 12.0078 190.406 11.709 191.883 11.709C193.359 11.709 194.66 12.0078 195.785 12.6055C196.91 13.1914 197.783 14.0352 198.404 15.1367C199.025 16.2383 199.336 17.5273 199.336 19.0039C199.336 20.4688 199.025 21.752 198.404 22.8535C197.783 23.9551 196.91 24.8047 195.785 25.4023C194.66 26 193.359 26.2988 191.883 26.2988C190.406 26.2988 189.105 26 187.98 25.4023C186.855 24.8047 185.982 23.9551 185.361 22.8535ZM186.979 15.9805C186.545 16.8594 186.328 17.8672 186.328 19.0039C186.328 20.1523 186.545 21.1719 186.979 22.0625C187.424 22.9414 188.062 23.627 188.895 24.1191C189.738 24.6113 190.734 24.8574 191.883 24.8574C193.031 24.8574 194.021 24.6113 194.854 24.1191C195.697 23.627 196.336 22.9414 196.77 22.0625C197.215 21.1719 197.438 20.1523 197.438 19.0039C197.438 17.8672 197.215 16.8594 196.77 15.9805C196.336 15.0898 195.697 14.3984 194.854 13.9062C194.021 13.4023 193.031 13.1504 191.883 13.1504C190.734 13.1504 189.738 13.4023 188.895 13.9062C188.062 14.3984 187.424 15.0898 186.979 15.9805ZM207.158 22.8535C206.537 21.752 206.227 20.4688 206.227 19.0039C206.227 17.5273 206.537 16.2383 207.158 15.1367C207.779 14.0352 208.652 13.1914 209.777 12.6055C210.902 12.0078 212.203 11.709 213.68 11.709C215.156 11.709 216.457 12.0078 217.582 12.6055C218.707 13.1914 219.58 14.0352 220.201 15.1367C220.822 16.2383 221.133 17.5273 221.133 19.0039C221.133 20.4688 220.822 21.752 220.201 22.8535C219.58 23.9551 218.707 24.8047 217.582 25.4023C216.457 26 215.156 26.2988 213.68 26.2988C212.203 26.2988 210.902 26 209.777 25.4023C208.652 24.8047 207.779 23.9551 207.158 22.8535ZM208.775 15.9805C208.342 16.8594 208.125 17.8672 208.125 19.0039C208.125 20.1523 208.342 21.1719 208.775 22.0625C209.221 22.9414 209.859 23.627 210.691 24.1191C211.535 24.6113 212.531 24.8574 213.68 24.8574C214.828 24.8574 215.818 24.6113 216.65 24.1191C217.494 23.627 218.133 22.9414 218.566 22.0625C219.012 21.1719 219.234 20.1523 219.234 19.0039C219.234 17.8672 219.012 16.8594 218.566 15.9805C218.133 15.0898 217.494 14.3984 216.65 13.9062C215.818 13.4023 214.828 13.1504 213.68 13.1504C212.531 13.1504 211.535 13.4023 210.691 13.9062C209.859 14.3984 209.221 15.0898 208.775 15.9805ZM239.977 13.8359H233.455V22.4141C233.455 23.2578 233.73 23.8789 234.281 24.2773C234.844 24.6641 235.576 24.8574 236.479 24.8574C237.299 24.8574 238.148 24.7168 239.027 24.4355C239.918 24.1426 240.645 23.7852 241.207 23.3633C241.254 23.3164 241.318 23.293 241.4 23.293C241.564 23.293 241.729 23.3926 241.893 23.5918C242.057 23.791 242.139 23.9902 242.139 24.1895C242.139 24.2832 242.109 24.3711 242.051 24.4531C241.805 24.7461 241.377 25.0391 240.768 25.332C240.17 25.6133 239.473 25.8418 238.676 26.0176C237.879 26.2051 237.088 26.2988 236.303 26.2988C235.506 26.2988 234.756 26.1523 234.053 25.8594C233.361 25.5547 232.805 25.1504 232.383 24.6465C231.973 24.1426 231.768 23.6035 231.768 23.0293V13.8359H229.254C228.996 13.8359 228.797 13.7598 228.656 13.6074C228.516 13.4551 228.445 13.2793 228.445 13.0801C228.445 12.8926 228.51 12.7344 228.639 12.6055C228.768 12.4648 228.949 12.3945 229.184 12.3945H231.768C231.768 10.9297 231.785 9.88086 231.82 9.24805C231.855 8.61523 231.943 8.15234 232.084 7.85938C232.236 7.55469 232.482 7.40234 232.822 7.40234C233.08 7.40234 233.25 7.47266 233.332 7.61328C233.414 7.74219 233.455 7.93555 233.455 8.19336V12.3945H239.994C240.205 12.3945 240.369 12.4707 240.486 12.623C240.615 12.7637 240.68 12.9277 240.68 13.1152C240.68 13.3145 240.615 13.4844 240.486 13.625C240.369 13.7656 240.199 13.8359 239.977 13.8359Z" fill="#100F09"/>
<path d="M88.1895 58.0527H88.0664C87.832 58.0527 87.6387 57.9824 87.4863 57.8418C87.334 57.6895 87.252 57.4668 87.2402 57.1738L87.1875 56.1191C86.6484 56.7637 85.9219 57.291 85.0078 57.7012C84.1055 58.0996 83.1152 58.2988 82.0371 58.2988C80.6895 58.2988 79.5117 57.9883 78.5039 57.3672C77.5078 56.7461 76.7402 55.8848 76.2012 54.7832C75.6621 53.6816 75.3926 52.4219 75.3926 51.0039C75.3926 49.6094 75.6621 48.3613 76.2012 47.2598C76.7402 46.1465 77.5078 45.2793 78.5039 44.6582C79.5117 44.0254 80.6895 43.709 82.0371 43.709C83.1035 43.709 84.0234 43.8672 84.7969 44.1836C85.582 44.5 86.3262 44.9629 87.0293 45.5723V38.8223L84.7793 38.9629C84.7324 38.9746 84.6797 38.9863 84.6211 38.998C84.5625 39.0098 84.498 39.0156 84.4277 39.0156C84.2285 39.0156 84.0645 38.9512 83.9355 38.8223C83.8066 38.6934 83.7422 38.5352 83.7422 38.3477C83.7422 38.1836 83.7891 38.0312 83.8828 37.8906C83.9766 37.75 84.123 37.6621 84.3223 37.627L87.6445 37.293C87.832 37.2695 87.9492 37.2578 87.9961 37.2578C88.4766 37.2578 88.7168 37.4863 88.7168 37.9434V56.5059L91.3184 56.3125H91.4238C91.6582 56.3125 91.834 56.3711 91.9512 56.4883C92.0684 56.6055 92.127 56.752 92.127 56.9277C92.127 57.1035 92.0684 57.2676 91.9512 57.4199C91.834 57.5605 91.6699 57.6543 91.459 57.7012L88.1895 58.0527ZM87.0293 47.418C85.8223 45.9062 84.1934 45.1504 82.1426 45.1504C81.0645 45.1504 80.1445 45.4141 79.3828 45.9414C78.6211 46.4688 78.0469 47.1777 77.6602 48.0684C77.2734 48.959 77.0801 49.9375 77.0801 51.0039C77.0801 52.0703 77.2734 53.0488 77.6602 53.9395C78.0469 54.8301 78.6152 55.5391 79.3652 56.0664C80.1152 56.5938 81.0176 56.8574 82.0723 56.8574C84.1934 56.8574 85.8457 56.0078 87.0293 54.3086V47.418ZM98.1738 54.8535C97.5527 53.752 97.2422 52.4688 97.2422 51.0039C97.2422 49.5273 97.5527 48.2383 98.1738 47.1367C98.7949 46.0352 99.668 45.1914 100.793 44.6055C101.918 44.0078 103.219 43.709 104.695 43.709C106.172 43.709 107.473 44.0078 108.598 44.6055C109.723 45.1914 110.596 46.0352 111.217 47.1367C111.838 48.2383 112.148 49.5273 112.148 51.0039C112.148 52.4688 111.838 53.752 111.217 54.8535C110.596 55.9551 109.723 56.8047 108.598 57.4023C107.473 58 106.172 58.2988 104.695 58.2988C103.219 58.2988 101.918 58 100.793 57.4023C99.668 56.8047 98.7949 55.9551 98.1738 54.8535ZM99.791 47.9805C99.3574 48.8594 99.1406 49.8672 99.1406 51.0039C99.1406 52.1523 99.3574 53.1719 99.791 54.0625C100.236 54.9414 100.875 55.627 101.707 56.1191C102.551 56.6113 103.547 56.8574 104.695 56.8574C105.844 56.8574 106.834 56.6113 107.666 56.1191C108.51 55.627 109.148 54.9414 109.582 54.0625C110.027 53.1719 110.25 52.1523 110.25 51.0039C110.25 49.8672 110.027 48.8594 109.582 47.9805C109.148 47.0898 108.51 46.3984 107.666 45.9062C106.834 45.4023 105.844 45.1504 104.695 45.1504C103.547 45.1504 102.551 45.4023 101.707 45.9062C100.875 46.3984 100.236 47.0898 99.791 47.9805ZM122.027 44.5V53.4473C122.027 54.4668 122.314 55.293 122.889 55.9258C123.475 56.5469 124.336 56.8574 125.473 56.8574C126.164 56.8574 126.873 56.7285 127.6 56.4707C128.326 56.2129 128.977 55.8613 129.551 55.416C130.137 54.9707 130.559 54.4785 130.816 53.9395V45.5898L129.111 45.9414C129.006 45.9766 128.9 45.9941 128.795 45.9941C128.549 45.9941 128.35 45.918 128.197 45.7656C128.045 45.6133 127.969 45.4375 127.969 45.2383C127.969 45.0742 128.021 44.9336 128.127 44.8164C128.244 44.6875 128.414 44.5996 128.637 44.5527L131.695 43.9375C131.789 43.9141 131.859 43.9023 131.906 43.9023C132.082 43.9023 132.223 43.9609 132.328 44.0781C132.445 44.1953 132.504 44.3359 132.504 44.5V56.5059L135.105 56.3125H135.211C135.445 56.3125 135.621 56.3711 135.738 56.4883C135.855 56.6055 135.914 56.752 135.914 56.9277C135.914 57.1035 135.855 57.2676 135.738 57.4199C135.621 57.5605 135.457 57.6543 135.246 57.7012L131.977 58.0527H131.854C131.619 58.0527 131.426 57.9824 131.273 57.8418C131.121 57.6895 131.039 57.4668 131.027 57.1738L130.939 55.6445C130.424 56.4062 129.656 57.0391 128.637 57.543C127.617 58.0469 126.557 58.2988 125.455 58.2988C124.4 58.2988 123.486 58.0938 122.713 57.6836C121.939 57.2734 121.348 56.6992 120.938 55.9609C120.539 55.2227 120.34 54.3672 120.34 53.3945V45.5898L118.617 45.9414C118.547 45.9648 118.447 45.9766 118.318 45.9766C118.084 45.9766 117.891 45.9004 117.738 45.748C117.586 45.5957 117.51 45.4199 117.51 45.2207C117.51 45.0566 117.562 44.916 117.668 44.7988C117.773 44.6816 117.932 44.5996 118.143 44.5527L121.219 43.9375C121.312 43.9141 121.383 43.9023 121.43 43.9023C121.605 43.9023 121.746 43.9609 121.852 44.0781C121.969 44.1953 122.027 44.3359 122.027 44.5ZM149.203 37.2402L149.396 37.2227C149.584 37.2227 149.736 37.2754 149.854 37.3809C149.971 37.4746 150.029 37.6094 150.029 37.7852V56.5586H156.006C156.217 56.5586 156.381 56.6348 156.498 56.7871C156.627 56.9277 156.691 57.0918 156.691 57.2793C156.691 57.4785 156.627 57.6484 156.498 57.7891C156.381 57.9297 156.211 58 155.988 58H141.926C141.668 58 141.469 57.9297 141.328 57.7891C141.188 57.6367 141.117 57.4609 141.117 57.2617C141.117 57.0742 141.182 56.9102 141.311 56.7695C141.439 56.6289 141.621 56.5586 141.855 56.5586H148.342V38.8398L142.137 39.332L142.014 39.3496C141.791 39.3496 141.615 39.2793 141.486 39.1387C141.357 38.9863 141.293 38.8105 141.293 38.6113C141.293 38.4355 141.34 38.2832 141.434 38.1543C141.527 38.0137 141.668 37.9316 141.855 37.9082L149.203 37.2402ZM173.496 49.7383V49.3867C173.496 48.0156 173.227 46.9668 172.688 46.2402C172.16 45.5137 171.24 45.1504 169.928 45.1504C169.189 45.1504 168.51 45.2148 167.889 45.3438C167.279 45.4609 166.664 45.6602 166.043 45.9414C165.996 46.8438 165.891 47.5234 165.727 47.9805C165.562 48.4375 165.281 48.666 164.883 48.666C164.543 48.666 164.279 48.5488 164.092 48.3145C163.916 48.0801 163.828 47.7754 163.828 47.4004C163.828 46.6973 164.086 46.0645 164.602 45.502C165.117 44.9395 165.838 44.5 166.764 44.1836C167.689 43.8672 168.75 43.709 169.945 43.709C171.293 43.709 172.348 43.9609 173.109 44.4648C173.883 44.9688 174.422 45.6953 174.727 46.6445C175.031 47.582 175.184 48.7656 175.184 50.1953V55.6797C175.184 56.0898 175.266 56.3711 175.43 56.5234C175.594 56.6641 175.816 56.7344 176.098 56.7344C176.402 56.7344 176.725 56.6465 177.064 56.4707C177.404 56.2832 177.674 56.084 177.873 55.873C178.002 55.7324 178.143 55.6621 178.295 55.6621C178.471 55.6621 178.623 55.7383 178.752 55.8906C178.881 56.043 178.945 56.2129 178.945 56.4004C178.945 56.5762 178.887 56.7227 178.77 56.8398C178.395 57.2383 177.961 57.5547 177.469 57.7891C176.988 58.0117 176.484 58.123 175.957 58.123C175.359 58.123 174.855 57.9824 174.445 57.7012C174.035 57.4082 173.76 56.8457 173.619 56.0137C173.045 56.6582 172.236 57.1973 171.193 57.6309C170.162 58.0645 169.037 58.2812 167.818 58.2812C166.506 58.2812 165.48 57.9238 164.742 57.209C164.004 56.4824 163.635 55.5156 163.635 54.3086C163.635 53.0898 164.021 52.1699 164.795 51.5488C165.568 50.9277 166.518 50.5176 167.643 50.3184C168.779 50.1191 170.303 49.9551 172.213 49.8262L173.496 49.7383ZM171.053 56.2773C172.049 55.8789 172.863 55.3457 173.496 54.6777V50.9512L172.775 51.0215C170.854 51.209 169.412 51.3906 168.451 51.5664C167.502 51.7305 166.746 52.0234 166.184 52.4453C165.621 52.8672 165.34 53.4883 165.34 54.3086C165.34 55.1992 165.58 55.8496 166.061 56.2598C166.553 56.6582 167.203 56.8574 168.012 56.8574C169.055 56.8574 170.068 56.6641 171.053 56.2773Z" fill="#100F09"/>
<path d="M58.1818 36.1697C58.1818 24.7831 50.3143 13.6082 38.2708 13.3699C31.2886 13.2317 24.3573 17.5081 22.9818 24.7273C21.8852 31.4165 25.3986 37.4303 32.2909 37.4303C34.9596 37.4303 37.7465 35.9886 38.0121 33.0667C38.0121 32.1024 37.6242 30.8791 37.0749 30.8791C36.3636 31.1273 35.7818 31.677 34.9102 31.677C32.6395 31.5777 31.7913 28.6777 33.0667 27.0545C33.8922 25.9073 35.02 25.4216 36.445 25.6216C40.4364 26.1818 42.0848 29.6964 42.0849 33.0667C42.0849 35.3041 41.3082 37.2057 39.5806 38.7879C37.8198 40.4004 35.6022 41.3928 33.0667 41.503C28.6061 41.697 26.2788 40.7273 23.2289 38.2061C20.4466 35.4237 19.0061 31.0361 19.0061 27.1013C19.5879 16.5818 28.5388 10.2788 37.8182 10.2788C44.2214 10.7636 47.2242 11.9273 53.4303 16.9697C55.3429 18.3955 56.082 19.1607 56.7302 18.7195C57.2615 18.3579 56.2689 17.0206 56.0434 16.5818H56.0443C50.9619 6.69706 41.1442 0 29.8667 0C13.3718 0 0 14.3269 0 32C0 49.6731 13.3718 64 29.8667 64C44.7083 64 58.1818 51.2517 58.1818 36.1697Z" fill="#6C8673"/>
</g>
</svg>
